#!OML:ASF I:\Actors\actors\Patient Classification 2\Patient 1\Session 1\actor1.ASF
:FULLY-SPECIFIED
:DEGREES
385
root -0.937985 18.0702 6.7775 26.2441 -4.55464 0.921707
lowerback 38.1158 2.86311 -4.51189
upperback 7.27566 1.90194 1.14048
thorax -10.7814 0.935232 2.80526
lowerneck -2.50437 -1.65392 -2.41541
upperneck 35.7891 -1.4995 -1.39047
head 12.2196 -1.08282 -0.246992
rclavicle -1.43125e-014 1.72943e-014
rhumerus -55.9793 38.5151 -81.6899
rradius 76.5183
rwrist -5.26266
rhand -1.04889 -38.7872
rfingers 7.12502
rthumb 24.5853 -67.2285
lclavicle -1.43125e-014 1.72943e-014
lhumerus -44.1623 -43.9425 83.9192
lradius 70.9908
lwrist 21.3564
lhand 8.4351 -15.5597
lfingers 7.12502
lthumb 33.6406 11.3031
rfemur -45.5785 -0.0643582 9.58778
rtibia 38.8678
rfoot -19.4777 0.63279
rtoes -5.57932
lfemur -50.0359 1.7034 -15.7176
ltibia 45.8538
lfoot -20.5032 5.26205
ltoes -54.971
386
root -0.996636 18.1012 6.77769 25.4355 -5.20054 0.835447
lowerback 36.9707 2.98625 -4.75934
upperback 7.69392 2.02014 1.13965
thorax -9.92319 0.972603 2.91254
lowerneck -2.87566 -1.42045 -2.55901
upperneck 35.7418 -1.13293 -1.44206
head 12.2754 -0.95076 -0.206446
rclavicle 4.96962e-015 5.96354e-016
rhumerus -57.7945 40.2198 -81.5357
rradius 78.1956
rwrist -6.16664
rhand 0.348345 -37.8308
rfingers 7.12502
rthumb 25.924 -66.0832
lclavicle 4.96962e-015 5.96354e-016
lhumerus -45.5741 -43.6455 83.1857
lradius 72.3556
lwrist 21.7345
lhand 9.15497 -15.269
lfingers 7.12502
lthumb 34.3244 11.4422
rfemur -44.5 -1.04852 10.4773
rtibia 38.1463
rfoot -18.2557 1.79951
rtoes -6.19531
lfemur -48.625 1.70572 -15.4653
ltibia 45.3171
lfoot -20.7692 6.08065
ltoes -55.0556
387
root -1.05775 18.1261 6.77505 24.7099 -5.73784 0.744654
lowerback 35.7444 2.99192 -4.79507
upperback 8.09146 2.07807 1.10589
thorax -9.04483 0.979115 2.90368
lowerneck -3.23713 -1.19582 -2.57344
upperneck 35.6766 -0.771716 -1.57455
head 12.3197 -0.813809 -0.219023
rclavicle 1.13307e-014 -1.64991e-014
rhumerus -59.2667 41.6869 -81.2154
rradius 79.6685
rwrist -7.04505
rhand 1.76138 -36.772
rfingers 7.12502
rthumb 27.2764 -64.8193
lclavicle 1.13307e-014 -1.64991e-014
lhumerus -46.7871 -42.7657 82.3554
lradius 73.4292
lwrist 21.778
lhand 9.73075 -15.3941
lfingers 7.12502
lthumb 34.8709 11.1921
rfemur -43.4606 -1.43985 11.0877
rtibia 37.4085
rfoot -17.6152 2.50172
rtoes -6.26796
lfemur -47.3522 1.51995 -15.1058
ltibia 44.7937
lfoot -21.0436 6.9038
ltoes -55.0213
388
root -1.12845 18.1499 6.7767 23.9397 -6.22316 0.697675
lowerback 34.4211 2.92834 -4.72181
upperback 8.59332 2.09309 1.03235
thorax -8.1267 0.964322 2.823
lowerneck -3.49451 -0.990896 -2.41
upperneck 35.5339 -0.408525 -1.90102
head 12.3085 -0.673851 -0.334776
rclavicle -1.78906e-015 -9.34288e-015
rhumerus -60.6711 43.2379 -80.8715
rradius 81.0238
rwrist -8.31481
rhand 3.42953 -35.8324
rfingers 7.12502
rthumb 28.8709 -63.6183
lclavicle -1.78906e-015 -9.34288e-015
lhumerus -47.68 -41.2157 81.3761
lradius 74.1964
lwrist 21.4369
lhand 9.84873 -15.7004
lfingers 7.12502
lthumb 34.9829 10.8597
rfemur -42.2774 -1.16933 11.3941
rtibia 36.6398
rfoot -17.5963 2.7516
rtoes -5.88076
lfemur -46.0204 1.08999 -14.6492
ltibia 44.2772
lfoot -21.3421 7.72173
ltoes -54.9446
389
root -1.20786 18.1736 6.78133 23.1037 -6.63843 0.794311
lowerback 33.2341 2.77869 -4.56224
upperback 9.00812 2.01424 0.907056
thorax -7.21714 0.908033 2.66913
lowerneck -3.83013 -0.755395 -2.33266
upperneck 35.5286 -0.00729506 -2.14937
head 12.3755 -0.521602 -0.402411
rclavicle 1.19271e-015 -1.80894e-014
rhumerus -62.1501 45.0533 -80.5792
rradius 82.2811
rwrist -10.0771
rhand 5.0738 -35.0451
rfingers 7.12502
rthumb 30.4404 -62.5517
lclavicle 1.19271e-015 -1.80894e-014
lhumerus -48.2346 -39.0308 80.2329
lradius 74.6559
lwrist 20.9278
lhand 9.71478 -15.9413
lfingers 7.12502
lthumb 34.8558 10.6483
rfemur -40.972 -0.561328 11.4393
rtibia 35.8814
rfoot -17.9929 2.71892
rtoes -5.52714
lfemur -44.6276 0.583554 -14.305
ltibia 43.765
lfoot -21.5307 8.41729
ltoes -54.9549
390
root -1.29823 18.1981 6.78296 22.1996 -6.91021 1.04585
lowerback 31.9518 2.50186 -4.26072
upperback 9.75183 1.82994 0.618352
thorax -6.50422 0.815988 2.502
lowerneck -4.17792 -0.504053 -2.53024
upperneck 35.5732 0.383802 -2.13722
head 12.4688 -0.3804 -0.321852
rclavicle 1.39149e-014 1.98785e-015
rhumerus -62.7323 46.0649 -79.8348
rradius 83.1932
rwrist -11.7687
rhand 6.93746 -34.6774
rfingers 7.12502
rthumb 32.2162 -61.8397
lclavicle 1.39149e-014 1.98785e-015
lhumerus -48.3228 -36.2585 78.7599
lradius 75.3648
lwrist 21.5315
lhand 11.1963 -13.5418
lfingers 7.12502
lthumb 36.2601 12.7104
rfemur -39.6151 0.319725 11.233
rtibia 35.2341
rfoot -18.6293 2.40395
rtoes -5.12222
lfemur -43.2338 0.190152 -14.1439
ltibia 43.2887
lfoot -21.4952 8.82629
ltoes -55.0977
391
root -1.39797 18.2225 6.78014 21.3708 -6.91317 1.49647
lowerback 31.0604 2.0644 -3.73832
upperback 10.0249 1.46371 0.345852
thorax -5.7471 0.635437 2.03991
lowerneck -4.4877 -0.244437 -3.00296
upperneck 35.5534 0.73424 -1.80701
head 12.5242 -0.254721 -0.0724526
rclavicle -1.74931e-014 4.57205e-015
rhumerus -62.1904 45.9728 -78.5421
rradius 83.6655
rwrist -13.104
rhand 9.50464 -35.0212
rfingers 7.12502
rthumb 34.6564 -61.6568
lclavicle -1.74931e-014 4.57205e-015
lhumerus -48.2566 -33.2605 77.2896
lradius 75.5631
lwrist 21.8411
lhand 11.3276 -13.1228
lfingers 7.12502
lthumb 36.3844 13.0983
rfemur -38.4257 1.31323 10.7654
rtibia 34.8057
rfoot -19.3735 1.80769
rtoes -4.60999
lfemur -42.0846 -0.159969 -14.1398
ltibia 42.9006
lfoot -21.1476 8.81211
ltoes -55.2483
392
root -1.4956 18.2411 6.76663 20.9546 -6.53949 2.24482
lowerback 30.4656 1.54997 -3.1739
upperback 9.78489 1.00347 0.210395
thorax -5.71241 0.430892 1.72601
lowerneck -4.87028 -0.0339455 -3.84103
upperneck 35.9948 1.03599 -1.26792
head 12.791 -0.178483 0.318064
rclavicle -1.19271e-015 1.98785e-015
rhumerus -61.964 45.3308 -77.2187
rradius 83.7389
rwrist -13.7955
rhand 12.1116 -35.8241
rfingers 7.12502
rthumb 37.1262 -61.8559
lclavicle -1.19271e-015 1.98785e-015
lhumerus -48.6515 -29.928 76.6358
lradius 75.1782
lwrist 21.5946
lhand 10.0368 -14.9627
lfingers 7.12502
lthumb 35.1612 11.5555
rfemur -37.8344 1.87865 10.0642
rtibia 34.5936
rfoot -19.9295 1.07438
rtoes -4.13462
lfemur -41.6444 -0.428402 -14.3819
ltibia 42.5816
lfoot -20.1889 8.20583
ltoes -55.5143
393
root -1.59501 18.2538 6.74584 20.8108 -5.95797 3.23842
lowerback 29.6755 1.03404 -2.73756
upperback 9.47199 0.516354 0.202463
thorax -5.67419 0.211254 1.63251
lowerneck -5.08326 0.026456 -5.21527
upperneck 36.3974 1.19373 -0.633257
head 13.0075 -0.220013 0.830275
rclavicle -1.55052e-014 -5.36719e-015
rhumerus -60.8027 43.6649 -75.1614
rradius 83.1398
rwrist -13.4609
rhand 14.5694 -36.7688
rfingers 7.12502
rthumb 39.4462 -62.1596
lclavicle -1.55052e-014 -5.36719e-015
lhumerus -48.6189 -26.0129 76.2165
lradius 74.189
lwrist 20.3168
lhand 7.74198 -18.1252
lfingers 7.12502
lthumb 32.9817 8.87887
rfemur -37.6531 2.06703 9.18838
rtibia 34.5365
rfoot -20.3078 0.326946
rtoes -3.76267
lfemur -41.6538 -0.232197 -14.9487
ltibia 42.2693
lfoot -18.5362 6.98027
ltoes -56.3437
